<svg width="598" height="601" viewBox="0 0 598 601" fill="none" xmlns="http://www.w3.org/2000/svg">
<path d="M568 300.5C568 450.035 447.423 571 299 571C150.577 571 30 450.035 30 300.5C30 150.965 150.577 30 299 30C447.423 30 568 150.965 568 300.5Z" fill="#C4C4C4" fill-opacity="0.1" stroke="white" stroke-width="60"/>
<path d="M365 165.5C365 170.538 360.402 176.665 349.295 181.825C338.601 186.793 323.476 190 306.5 190C289.524 190 274.399 186.793 263.705 181.825C252.598 176.665 248 170.538 248 165.5C248 160.462 252.598 154.335 263.705 149.175C274.399 144.207 289.524 141 306.5 141C323.476 141 338.601 144.207 349.295 149.175C360.402 154.335 365 160.462 365 165.5Z" stroke="white" stroke-width="10"/>
<line x1="189.996" y1="31.1922" x2="188.996" y2="57.1922" stroke="white" stroke-width="10"/>
<path d="M292.032 94.2157C270.606 94.7928 258.946 98.0018 235.801 105.675" stroke="white" stroke-width="7" stroke-linecap="round"/>
<path d="M332.46 95.6187C321.229 92.7283 314.595 93.425 306.036 93.3817" stroke="white" stroke-width="7" stroke-linecap="round"/>
<line x1="423.996" y1="31.1922" x2="422.996" y2="57.1922" stroke="white" stroke-width="10"/>
<line x1="248.584" y1="167.345" x2="188.584" y2="54.3448" stroke="white" stroke-width="10"/>
<path d="M362 173L424 54" stroke="white" stroke-width="10"/>
<ellipse cx="307" cy="165.5" rx="43" ry="16.5" fill="white"/>
<circle cx="303.5" cy="434.5" r="27.5" fill="white"/>
<line x1="306.999" y1="181.152" x2="303.83" y2="410.13" stroke="white" stroke-opacity="0.75" stroke-width="22"/>
<line x1="156.071" y1="288" x2="177" y2="308.929" stroke="white" stroke-width="10" stroke-linecap="round"/>
<path d="M266.637 333.13C265.605 330.569 262.691 329.33 260.13 330.363C257.569 331.395 256.33 334.309 257.363 336.87L266.637 333.13ZM282.363 398.87L284.233 403.507L293.507 399.767L291.637 395.13L282.363 398.87ZM257.363 336.87L282.363 398.87L291.637 395.13L266.637 333.13L257.363 336.87Z" fill="white"/>
<path d="M373.536 374.536C375.488 372.583 375.488 369.417 373.536 367.464C371.583 365.512 368.417 365.512 366.464 367.464L373.536 374.536ZM330.464 403.464L326.929 407L334 414.071L337.536 410.536L330.464 403.464ZM366.464 367.464L330.464 403.464L337.536 410.536L373.536 374.536L366.464 367.464Z" fill="white"/>
<path d="M360.523 500.593C362.507 502.513 365.673 502.461 367.593 500.477C369.513 498.493 369.461 495.327 367.477 493.407L360.523 500.593ZM336.477 463.407L332.884 459.93L325.93 467.116L329.523 470.593L336.477 463.407ZM367.477 493.407L336.477 463.407L329.523 470.593L360.523 500.593L367.477 493.407Z" fill="white"/>
<path d="M240.464 493.464C238.512 495.417 238.512 498.583 240.464 500.536C242.417 502.488 245.583 502.488 247.536 500.536L240.464 493.464ZM277.536 470.536L281.071 467L274 459.929L270.464 463.464L277.536 470.536ZM247.536 500.536L277.536 470.536L270.464 463.464L240.464 493.464L247.536 500.536Z" fill="white"/>
<path d="M232.536 515.536C234.488 513.583 234.488 510.417 232.536 508.464C230.583 506.512 227.417 506.512 225.464 508.464L232.536 515.536ZM176.464 557.464L172.929 561L180 568.071L183.536 564.536L176.464 557.464ZM225.464 508.464L176.464 557.464L183.536 564.536L232.536 515.536L225.464 508.464Z" fill="white"/>
<path d="M144.882 506.632C147.44 505.593 148.672 502.676 147.632 500.118C146.593 497.56 143.676 496.328 141.118 497.368L144.882 506.632ZM109.118 510.368L104.486 512.25L108.25 521.514L112.882 519.632L109.118 510.368ZM141.118 497.368L109.118 510.368L112.882 519.632L144.882 506.632L141.118 497.368Z" fill="white"/>
<path d="M351.854 570.348C352.875 572.914 355.783 574.167 358.348 573.146C360.914 572.125 362.167 569.217 361.146 566.652L351.854 570.348ZM324.146 473.652L322.297 469.006L313.006 472.703L314.854 477.348L324.146 473.652ZM361.146 566.652L324.146 473.652L314.854 477.348L351.854 570.348L361.146 566.652Z" fill="white"/>
<path d="M298.966 589.373C298.965 592.134 301.203 594.373 303.964 594.374C306.726 594.375 308.965 592.137 308.966 589.376L298.966 589.373ZM309 478.002L309.002 473.002L299.002 472.998L299 477.998L309 478.002ZM308.966 589.376L309 478.002L299 477.998L298.966 589.373L308.966 589.376Z" fill="white" fill-opacity="0.75"/>
<path d="M378 442C380.761 442 383 439.761 383 437C383 434.239 380.761 432 378 432V442ZM346 432H341V442H346V432ZM378 432H346V442H378V432Z" fill="white"/>
<path d="M474.869 373.637C477.431 372.605 478.67 369.692 477.637 367.131C476.605 364.569 473.692 363.33 471.131 364.363L474.869 373.637ZM342.131 416.363L337.493 418.232L341.232 427.507L345.869 425.637L342.131 416.363ZM471.131 364.363L342.131 416.363L345.869 425.637L474.869 373.637L471.131 364.363Z" fill="white"/>
<path d="M231.536 357.464C229.583 355.512 226.417 355.512 224.464 357.464C222.512 359.417 222.512 362.583 224.464 364.536L231.536 357.464ZM269.464 409.536L273 413.071L280.071 406L276.536 402.464L269.464 409.536ZM224.464 364.536L269.464 409.536L276.536 402.464L231.536 357.464L224.464 364.536Z" fill="white"/>
<path d="M248.39 554.065C247.321 556.611 248.519 559.542 251.065 560.61C253.611 561.679 256.542 560.481 257.61 557.935L248.39 554.065ZM291.61 476.935L293.546 472.325L284.325 468.454L282.39 473.065L291.61 476.935ZM257.61 557.935L291.61 476.935L282.39 473.065L248.39 554.065L257.61 557.935Z" fill="white"/>
<path d="M375.61 279.937C376.679 277.391 375.483 274.46 372.937 273.39C370.391 272.321 367.46 273.517 366.39 276.063L375.61 279.937ZM316.39 395.063L314.454 399.673L323.673 403.546L325.61 398.937L316.39 395.063ZM366.39 276.063L316.39 395.063L325.61 398.937L375.61 279.937L366.39 276.063Z" fill="white"/>
<path d="M441.003 501.584C443.535 502.687 446.481 501.529 447.584 498.997C448.687 496.465 447.529 493.519 444.997 492.416L441.003 501.584ZM343.997 448.416L339.413 446.419L335.419 455.587L340.003 457.584L343.997 448.416ZM444.997 492.416L343.997 448.416L340.003 457.584L441.003 501.584L444.997 492.416Z" fill="white"/>
<path d="M166.118 487.368C163.56 488.407 162.328 491.324 163.368 493.882C164.407 496.44 167.324 497.672 169.882 496.632L166.118 487.368ZM265.882 457.632L270.514 455.75L266.75 446.486L262.118 448.368L265.882 457.632ZM169.882 496.632L265.882 457.632L262.118 448.368L166.118 487.368L169.882 496.632Z" fill="white"/>
<path d="M196 432C193.239 432 191 434.239 191 437C191 439.761 193.239 442 196 442V432ZM261 442H266V432H261V442ZM196 442H261V432H196V442Z" fill="white"/>
<path d="M205.951 390.396C203.408 389.319 200.474 390.507 199.396 393.049C198.319 395.592 199.507 398.526 202.049 399.604L205.951 390.396ZM261.049 424.604L265.653 426.555L269.555 417.347L264.951 415.396L261.049 424.604ZM202.049 399.604L261.049 424.604L264.951 415.396L205.951 390.396L202.049 399.604Z" fill="white"/>
<path d="M250.067 575.663C251.201 573.145 250.078 570.185 247.56 569.052C245.041 567.919 242.081 569.041 240.948 571.56L250.067 575.663ZM236.052 582.44L234 587L243.119 591.104L245.171 586.544L236.052 582.44ZM240.948 571.56L236.052 582.44L245.171 586.544L250.067 575.663L240.948 571.56Z" fill="white"/>
<path d="M403.491 529.525C401.572 527.539 398.406 527.486 396.421 529.405C394.436 531.325 394.382 534.49 396.302 536.475L403.491 529.525ZM422.405 563.475L425.881 567.07L433.07 560.119L429.595 556.525L422.405 563.475ZM396.302 536.475L422.405 563.475L429.595 556.525L403.491 529.525L396.302 536.475Z" fill="white"/>
<path d="M464.045 499.437C461.525 498.308 458.567 499.435 457.437 501.955C456.308 504.475 457.435 507.433 459.955 508.563L464.045 499.437ZM488.955 521.563L493.517 523.608L497.608 514.483L493.045 512.437L488.955 521.563ZM459.955 508.563L488.955 521.563L493.045 512.437L464.045 499.437L459.955 508.563Z" fill="white"/>
<line x1="190.071" y1="323" x2="211" y2="343.929" stroke="white" stroke-opacity="0.75" stroke-width="10" stroke-linecap="round"/>
<line x1="104" y1="437" x2="149" y2="437" stroke="white" stroke-opacity="0.75" stroke-width="10" stroke-linecap="round"/>
<line x1="87.5968" y1="343.454" x2="157.454" y2="374.403" stroke="white" stroke-width="10" stroke-linecap="round"/>
<line x1="395.921" y1="344.929" x2="477.929" y2="261.079" stroke="white" stroke-opacity="0.75" stroke-width="10" stroke-linecap="round"/>
<line x1="418" y1="437" x2="514" y2="437" stroke="white" stroke-opacity="0.75" stroke-width="10" stroke-linecap="round"/>
<line x1="172.499" y1="381.215" x2="183.215" y2="385.501" stroke="white" stroke-width="10" stroke-linecap="round"/>
<line x1="235.475" y1="266.842" x2="254.842" y2="316.525" stroke="white" stroke-width="10" stroke-linecap="round"/>
</svg>
